<svg width="60" height="60" viewBox="0 0 60 60" fill="none" xmlns="http://www.w3.org/2000/svg">
<g clip-path="url(#clip0_1_46)">
<path d="M45.7521 4.40566C49.4415 7.38339 52.0002 11.688 52.7325 16.5865C57.0057 14.6552 60 10.3733 60 5.38781V0.00280762L45.7521 4.40566Z" fill="white"/>
<path d="M30 20.6674L24.8948 33.4322L27.5709 38.7863H32.4291L35.1051 33.4322L30 20.6674Z" fill="white"/>
<path d="M52.0651 45.0947L50.4604 33.0819C49.7136 28.6034 49.3359 24.032 49.3359 19.4503C49.3359 10.7265 42.2394 3.63 33.5156 3.63H26.4844C17.7606 3.63 10.6641 10.7265 10.6641 19.4503V19.4984C10.6641 24.032 10.2864 28.6032 9.53109 33.1369L7.93464 45.0948C7.37507 49.2696 9.86929 53.2659 13.8655 54.5963L18.5175 56.1481C21.0512 58.5238 24.4604 59.9972 27.94 59.9972H32.0598C35.5393 59.9972 38.9486 58.5239 41.4823 56.1481L46.1343 54.5979C50.1306 53.2658 52.6248 49.2695 52.0651 45.0947ZM17.6953 35.2706H14.1797V31.755H17.6953V35.2706ZM24.7266 51.0909C24.7266 50.1211 23.9386 49.3331 22.9687 49.3331V45.8175C25.8766 45.8175 28.2422 48.1831 28.2422 51.0909H24.7266ZM37.0312 49.3331C36.0614 49.3331 35.2734 50.1211 35.2734 51.0909H31.7578C31.7578 48.1831 34.1234 45.8175 37.0312 45.8175V49.3331ZM34.6022 42.3019H25.3977L21.0427 33.5934L30 11.202L38.9573 33.5934L34.6022 42.3019ZM45.8203 35.2706H42.3047V31.755H45.8203V35.2706Z" fill="white"/>
<path d="M0 0.00280762V5.38781C0 10.3757 2.99684 14.6599 7.27324 16.5898C8.01375 11.6906 10.5729 7.38679 14.258 4.40894L0 0.00280762Z" fill="white"/>
</g>
<defs>
<clipPath id="clip0_1_46">
<rect width="60" height="60" fill="white"/>
</clipPath>
</defs>
</svg>
