<svg width="35" height="35" viewBox="0 0 35 35" fill="none" xmlns="http://www.w3.org/2000/svg">
<g clip-path="url(#clip0_1_9)">
<path d="M35 17.5C35 27.1644 27.1644 35 17.5 35C7.83557 35 0 27.1644 0 17.5C0 7.83557 7.83557 0 17.5 0C27.1665 0 35 7.83557 35 17.5Z" fill="white"/>
<path d="M8.63376 18.088L8.70924 17.9693L13.2617 10.8476C13.3282 10.7433 13.4846 10.7541 13.535 10.8674C14.2955 12.5719 14.9518 14.6917 14.6443 16.0114C14.5131 16.5543 14.1535 17.2897 13.7489 17.9693C13.6968 18.0682 13.6393 18.1653 13.5781 18.2588C13.5494 18.302 13.5008 18.3272 13.4487 18.3272H8.7668C8.64091 18.3272 8.56722 18.1905 8.63376 18.088Z" fill="#2081E2"/>
<path d="M28.9256 19.4114V20.5387C28.9256 20.6034 28.886 20.6609 28.8285 20.6861C28.4761 20.8371 27.2696 21.3909 26.768 22.0885C25.4879 23.8703 24.5098 26.418 22.3234 26.418H13.2024C9.96964 26.418 7.35001 23.7894 7.35001 20.5459V20.4416C7.35001 20.3553 7.42012 20.2851 7.50642 20.2851H12.5911C12.6917 20.2851 12.7655 20.3786 12.7565 20.4775C12.7205 20.8084 12.7817 21.1464 12.9381 21.4538C13.2401 22.0669 13.8658 22.4499 14.5418 22.4499H17.059V20.4847H14.5706C14.443 20.4847 14.3675 20.3373 14.4412 20.233C14.4682 20.1917 14.4987 20.1485 14.5311 20.1C14.7666 19.7655 15.1028 19.2459 15.4372 18.6544C15.6656 18.2553 15.8867 17.8291 16.0647 17.4012C16.1007 17.3239 16.1294 17.2448 16.1582 17.1675C16.2068 17.0308 16.2571 16.9032 16.2931 16.7755C16.329 16.6677 16.3578 16.5544 16.3866 16.4483C16.4711 16.0851 16.507 15.7003 16.507 15.3012C16.507 15.1448 16.4998 14.9812 16.4854 14.8247C16.4783 14.6539 16.4567 14.4831 16.4351 14.3123C16.4207 14.1613 16.3938 14.0121 16.365 13.8556C16.329 13.6273 16.2787 13.4008 16.2211 13.1724L16.2014 13.0861C16.1582 12.9297 16.1223 12.7804 16.0719 12.624C15.9299 12.1332 15.7663 11.6549 15.5937 11.2072C15.5308 11.0292 15.4588 10.8584 15.3869 10.6876C15.2808 10.4305 15.1729 10.1968 15.074 9.97562C15.0237 9.87494 14.9806 9.78324 14.9374 9.68975C14.8889 9.58366 14.8385 9.47761 14.7882 9.37689C14.7522 9.29958 14.7109 9.22767 14.6821 9.15577L14.3747 8.5876C14.3315 8.51029 14.4034 8.41859 14.4879 8.44196L16.4117 8.96338H16.4171C16.4207 8.96338 16.4225 8.96517 16.4243 8.96517L16.6778 9.03529L16.9565 9.11439L17.059 9.14317V7.99968C17.059 7.44769 17.5013 7 18.0479 7C18.3212 7 18.5693 7.11146 18.7473 7.29307C18.9253 7.47468 19.0368 7.72279 19.0368 7.99968V9.69694L19.2417 9.75446C19.2579 9.75987 19.2741 9.76706 19.2885 9.77783C19.3388 9.81559 19.4107 9.87136 19.5024 9.93965C19.5743 9.99721 19.6517 10.0673 19.7452 10.1392C19.9304 10.2885 20.1515 10.4809 20.3942 10.702C20.4589 10.7578 20.5219 10.8153 20.5794 10.8728C20.8922 11.1641 21.2429 11.5057 21.5773 11.8833C21.6708 11.9893 21.7625 12.0972 21.856 12.2105C21.9495 12.3256 22.0483 12.4388 22.1347 12.5521C22.2479 12.7031 22.3702 12.8595 22.4763 13.0232C22.5266 13.1005 22.5841 13.1796 22.6327 13.2569C22.7693 13.4637 22.8898 13.6776 23.0049 13.8916C23.0534 13.9905 23.1037 14.0983 23.1469 14.2044C23.2745 14.4903 23.3753 14.7816 23.44 15.0729C23.4598 15.1358 23.4741 15.2041 23.4813 15.2653V15.2796C23.5029 15.3659 23.5101 15.4576 23.5173 15.5511C23.5461 15.8496 23.5317 16.148 23.4669 16.4483C23.44 16.576 23.404 16.6964 23.3609 16.8241C23.3177 16.9463 23.2745 17.074 23.2188 17.1944C23.1109 17.4443 22.9833 17.6943 22.8323 17.928C22.7837 18.0143 22.7262 18.106 22.6687 18.1923C22.6057 18.284 22.541 18.3703 22.4835 18.4548C22.4044 18.5627 22.3199 18.676 22.2335 18.7766C22.1562 18.8827 22.0771 18.9888 21.9908 19.0823C21.8703 19.2243 21.7553 19.3592 21.6348 19.4887C21.5629 19.5732 21.4856 19.6595 21.4065 19.7368C21.3292 19.8231 21.2501 19.9004 21.1781 19.9723C21.0577 20.0928 20.957 20.1862 20.8725 20.2636L20.6747 20.4452C20.6459 20.4703 20.6082 20.4847 20.5686 20.4847H19.0368V22.4499H20.9642C21.3957 22.4499 21.8056 22.2971 22.1365 22.0166C22.2497 21.9177 22.7442 21.4898 23.3285 20.8443C23.3483 20.8227 23.3734 20.8066 23.4022 20.7994L28.726 19.2603C28.8249 19.2315 28.9256 19.307 28.9256 19.4114Z" fill="#2081E2"/>
</g>
<defs>
<clipPath id="clip0_1_9">
<rect width="35" height="35" fill="white"/>
</clipPath>
</defs>
</svg>
